<svg id="Layer_2" data-name="Layer 2" xmlns="http://www.w3.org/2000/svg" viewBox="0 0 181.15 234.32"><defs><style>.cls-1{fill:#81bc42;}</style></defs><path class="cls-1" d="M114.2,41.68V64.53a32.49,32.49,0,1,1-41.35,0V41.68a52.19,52.19,0,1,0,41.35,0Z"/><rect class="cls-1" x="82.7" y="41.35" width="19.69" height="66.95"/><path class="cls-1" d="M181.15,90.58a90.58,90.58,0,1,0-102.3,89.79L95,157.46c-.82,0-1.64.06-2.48.06a68.92,68.92,0,1,1,68.92-68.91c0,11-1.11,21.25-6.25,31.16-4.21,8.12-10,15.3-15.82,22.36-24.28,29.47-45.08,60.67-66.54,92.19l27.57-2c16.08-23.29,31.66-47,48.21-70C163.54,141.69,181.15,117.12,181.15,90.58Z"/></svg>